<?xml version="1.0" standalone="no"?>
<!DOCTYPE svg PUBLIC "-//W3C//DTD SVG 20010904//EN"
 "http://www.w3.org/TR/2001/REC-SVG-20010904/DTD/svg10.dtd">
<svg version="1.0" xmlns="http://www.w3.org/2000/svg"
 width="300.000000pt" height="300.000000pt" viewBox="0 0 300.000000 300.000000"
 preserveAspectRatio="xMidYMid meet">
<metadata>
Created by potrace 1.14, written by Peter Selinger 2001-2017
</metadata>
<g transform="translate(0.000000,300.000000) scale(0.100000,-0.100000)"
fill="#000000" stroke="none">
<path d="M1339 2996 c-2 -2 -22 -6 -44 -9 -424 -59 -763 -366 -886 -804 -12
-43 -24 -91 -26 -108 -3 -16 -9 -50 -14 -75 -16 -87 -4 -305 24 -422 97 -400
411 -932 778 -1323 26 -27 58 -61 71 -75 34 -37 137 -124 182 -154 21 -14 51
-26 65 -26 87 0 340 248 577 565 272 363 453 709 536 1024 27 102 31 135 33
271 3 165 -8 243 -55 386 -90 274 -294 508 -558 639 -69 34 -230 86 -307 100
-42 7 -370 17 -376 11z m326 -271 c250 -49 447 -177 571 -370 43 -66 99 -190
107 -235 3 -14 10 -45 17 -69 29 -109 17 -299 -29 -451 -103 -346 -396 -823
-713 -1163 -64 -69 -100 -88 -156 -79 -31 5 -127 100 -232 232 -19 24 -40 48
-45 54 -18 18 -159 217 -207 291 -228 354 -351 666 -352 895 0 169 28 294 100
443 120 248 331 406 604 452 72 12 274 12 335 0z"/>
<path d="M1479 2616 c-2 -2 -33 -6 -69 -9 -189 -16 -380 -122 -506 -282 -67
-85 -128 -224 -149 -340 -6 -34 -6 -186 -1 -225 31 -203 139 -379 301 -495
131 -93 253 -135 412 -140 214 -7 400 64 548 211 152 150 227 338 220 552 -3
125 -26 216 -83 324 -117 225 -361 387 -597 397 -33 2 -62 4 -66 7 -3 2 -8 2
-10 0z m-93 -414 c21 -11 56 -36 77 -56 l39 -35 36 35 c49 48 99 72 165 80
105 12 198 -39 252 -137 25 -46 29 -65 30 -129 0 -65 -4 -84 -32 -140 -43 -87
-154 -206 -283 -302 -153 -114 -178 -117 -298 -32 -89 63 -102 75 -203 175
-115 115 -154 191 -154 299 1 63 5 83 30 128 68 125 221 176 341 114z"/>
</g>
</svg>
